<svg width="16" height="16" viewBox="0 0 16 16" fill="none" xmlns="http://www.w3.org/2000/svg">
<path fill-rule="evenodd" clip-rule="evenodd" d="M10.3334 0.666656H3.00008C2.26675 0.666656 1.66675 1.26666 1.66675 1.99999V10.6667C1.66675 11.0333 1.96675 11.3333 2.33341 11.3333C2.70008 11.3333 3.00008 11.0333 3.00008 10.6667V2.66666C3.00008 2.29999 3.30008 1.99999 3.66675 1.99999H10.3334C10.7001 1.99999 11.0001 1.69999 11.0001 1.33332C11.0001 0.966656 10.7001 0.666656 10.3334 0.666656ZM13.0001 3.33332H5.66675C4.93341 3.33332 4.33342 3.93332 4.33342 4.66666V14C4.33342 14.7333 4.93341 15.3333 5.66675 15.3333H13.0001C13.7334 15.3333 14.3334 14.7333 14.3334 14V4.66666C14.3334 3.93332 13.7334 3.33332 13.0001 3.33332ZM6.33341 14H12.3334C12.7001 14 13.0001 13.7 13.0001 13.3333V5.33332C13.0001 4.96666 12.7001 4.66666 12.3334 4.66666H6.33341C5.96675 4.66666 5.66675 4.96666 5.66675 5.33332V13.3333C5.66675 13.7 5.96675 14 6.33341 14Z" fill="#7D8E9F"/>
</svg>
