<svg width="120" height="121" viewBox="0 0 120 121" fill="none" xmlns="http://www.w3.org/2000/svg">
<ellipse cx="60" cy="60.2548" rx="60" ry="59.9999" fill="#E1F6E8"/>
<path fill-rule="evenodd" clip-rule="evenodd" d="M25.1008 74.4967L90.0992 81.3093L91.6234 66.8478L26.625 60.0352L25.1008 74.4967Z" fill="#94C6A5"/>
<mask id="mask0" mask-type="alpha" maskUnits="userSpaceOnUse" x="25" y="58" width="68" height="10">
<path fill-rule="evenodd" clip-rule="evenodd" d="M25.7812 58.9609L92.6709 65.9718L92.4652 67.923L25.5756 60.9121L25.7812 58.9609Z" fill="white"/>
</mask>
<g mask="url(#mask0)">
<path fill-rule="evenodd" clip-rule="evenodd" d="M91.487 67.8207L26.5537 61.0149C26.0136 60.9583 25.6216 60.4755 25.6784 59.9369C25.7352 59.3978 26.2193 59.0069 26.7594 59.0635L91.6927 65.8693C92.2328 65.9259 92.6248 66.4086 92.568 66.9478C92.5112 67.4864 92.0271 67.8773 91.487 67.8207Z" fill="#4545E9"/>
<path fill-rule="evenodd" clip-rule="evenodd" d="M91.487 67.8207L26.5537 61.0149C26.0136 60.9583 25.6216 60.4755 25.6784 59.9369C25.7352 59.3978 26.2193 59.0069 26.7594 59.0635L91.6927 65.8693C92.2328 65.9259 92.6248 66.4086 92.568 66.9478C92.5112 67.4864 92.0271 67.8773 91.487 67.8207Z" fill="#71AB84"/>
</g>
<path fill-rule="evenodd" clip-rule="evenodd" d="M89.9675 82.2816L25.0342 75.4758C24.4941 75.4192 24.1021 74.9365 24.1589 74.3979C24.2157 73.8587 24.6998 73.4678 25.2399 73.5244L90.1732 80.3302C90.7133 80.3868 91.1053 80.8696 91.0485 81.4087C90.9917 81.9473 90.5076 82.3382 89.9675 82.2816Z" fill="#4545E9"/>
<path fill-rule="evenodd" clip-rule="evenodd" d="M89.9675 82.2816L25.0342 75.4758C24.4941 75.4192 24.1021 74.9365 24.1589 74.3979C24.2157 73.8587 24.6998 73.4678 25.2399 73.5244L90.1732 80.3302C90.7133 80.3868 91.1053 80.8696 91.0485 81.4087C90.9917 81.9473 90.5076 82.3382 89.9675 82.2816Z" fill="#71AB84"/>
<path fill-rule="evenodd" clip-rule="evenodd" d="M35.7402 68.7116C35.8389 67.7747 35.1571 66.9351 34.2176 66.8366C33.2775 66.7381 32.4355 67.418 32.3368 68.3549C32.238 69.2924 32.9198 70.132 33.8599 70.2305C34.7994 70.329 35.6414 69.6491 35.7402 68.7116Z" fill="#F5F6FB"/>
<path fill-rule="evenodd" clip-rule="evenodd" d="M40.647 69.2244C40.7458 68.2874 40.0639 67.4478 39.1239 67.3493C38.1838 67.2508 37.3418 67.9307 37.243 68.8676C37.1442 69.8051 37.8261 70.6447 38.7661 70.7432C39.7062 70.8418 40.5482 70.1618 40.647 69.2244Z" fill="#71AB84"/>
<path fill-rule="evenodd" clip-rule="evenodd" d="M45.5527 69.7399C45.6514 68.803 44.9696 67.9634 44.0301 67.8649C43.09 67.7664 42.248 68.4463 42.1493 69.3832C42.0505 70.3207 42.7323 71.1603 43.6724 71.2589C44.6119 71.3573 45.4539 70.6774 45.5527 69.7399Z" fill="#509066"/>
<path fill-rule="evenodd" clip-rule="evenodd" d="M26.4648 85.3906H88.1284V81.999H26.4648V85.3906Z" fill="#509066"/>
<path fill-rule="evenodd" clip-rule="evenodd" d="M24.6211 100.36H89.9775V85.8184H24.6211V100.36Z" fill="#94C6A5"/>
<path fill-rule="evenodd" clip-rule="evenodd" d="M26.4688 104.305H88.1323V100.913H26.4688V104.305Z" fill="#509066"/>
<path fill-rule="evenodd" clip-rule="evenodd" d="M89.9425 86.8001H24.6515C24.1084 86.8001 23.668 86.3608 23.668 85.8193C23.668 85.2771 24.1084 84.8379 24.6515 84.8379H89.9425C90.4856 84.8379 90.926 85.2771 90.926 85.8193C90.926 86.3608 90.4856 86.8001 89.9425 86.8001Z" fill="#4545E9"/>
<path fill-rule="evenodd" clip-rule="evenodd" d="M89.9425 86.8001H24.6515C24.1084 86.8001 23.668 86.3608 23.668 85.8193C23.668 85.2771 24.1084 84.8379 24.6515 84.8379H89.9425C90.4856 84.8379 90.926 85.2771 90.926 85.8193C90.926 86.3608 90.4856 86.8001 89.9425 86.8001Z" fill="#71AB84"/>
<path fill-rule="evenodd" clip-rule="evenodd" d="M89.9425 101.341H24.6515C24.1084 101.341 23.668 100.902 23.668 100.36C23.668 99.8181 24.1084 99.3789 24.6515 99.3789H89.9425C90.4856 99.3789 90.926 99.8181 90.926 100.36C90.926 100.902 90.4856 101.341 89.9425 101.341Z" fill="#4545E9"/>
<path fill-rule="evenodd" clip-rule="evenodd" d="M89.9425 101.341H24.6515C24.1084 101.341 23.668 100.902 23.668 100.36C23.668 99.8181 24.1084 99.3789 24.6515 99.3789H89.9425C90.4856 99.3789 90.926 99.8181 90.926 100.36C90.926 100.902 90.4856 101.341 89.9425 101.341Z" fill="#71AB84"/>
<path fill-rule="evenodd" clip-rule="evenodd" d="M24.6211 119.275H89.9775V104.733H24.6211V119.275Z" fill="#94C6A5"/>
<path fill-rule="evenodd" clip-rule="evenodd" d="M89.9425 105.714H24.6515C24.1084 105.714 23.668 105.274 23.668 104.733C23.668 104.191 24.1084 103.752 24.6515 103.752H89.9425C90.4856 103.752 90.926 104.191 90.926 104.733C90.926 105.274 90.4856 105.714 89.9425 105.714Z" fill="#4545E9"/>
<path fill-rule="evenodd" clip-rule="evenodd" d="M89.9425 105.714H24.6515C24.1084 105.714 23.668 105.274 23.668 104.733C23.668 104.191 24.1084 103.752 24.6515 103.752H89.9425C90.4856 103.752 90.926 104.191 90.926 104.733C90.926 105.274 90.4856 105.714 89.9425 105.714Z" fill="#71AB84"/>
<path fill-rule="evenodd" clip-rule="evenodd" d="M89.9425 120.256H24.6515C24.1084 120.256 23.668 119.816 23.668 119.275C23.668 118.733 24.1084 118.294 24.6515 118.294H89.9425C90.4856 118.294 90.926 118.733 90.926 119.275C90.926 119.816 90.4856 120.256 89.9425 120.256Z" fill="#4545E9"/>
<path fill-rule="evenodd" clip-rule="evenodd" d="M89.9425 120.256H24.6515C24.1084 120.256 23.668 119.816 23.668 119.275C23.668 118.733 24.1084 118.294 24.6515 118.294H89.9425C90.4856 118.294 90.926 118.733 90.926 119.275C90.926 119.816 90.4856 120.256 89.9425 120.256Z" fill="#71AB84"/>
<path fill-rule="evenodd" clip-rule="evenodd" d="M33.9182 112.622C33.9182 111.68 33.1522 110.915 32.2074 110.915C31.2622 110.915 30.4961 111.68 30.4961 112.622C30.4961 113.564 31.2622 114.328 32.2074 114.328C33.1522 114.328 33.9182 113.564 33.9182 112.622Z" fill="#F5F6FB"/>
<path fill-rule="evenodd" clip-rule="evenodd" d="M38.8524 112.622C38.8524 111.68 38.0863 110.915 37.141 110.915C36.1958 110.915 35.4297 111.68 35.4297 112.622C35.4297 113.564 36.1958 114.328 37.141 114.328C38.0863 114.328 38.8524 113.564 38.8524 112.622Z" fill="#71AB84"/>
<path fill-rule="evenodd" clip-rule="evenodd" d="M43.7854 112.622C43.7854 111.68 43.0193 110.915 42.0746 110.915C41.1294 110.915 40.3633 111.68 40.3633 112.622C40.3633 113.564 41.1294 114.328 42.0746 114.328C43.0193 114.328 43.7854 113.564 43.7854 112.622Z" fill="#509066"/>
<path fill-rule="evenodd" clip-rule="evenodd" d="M33.9182 93.6465C33.9182 92.7044 33.1522 91.9404 32.2074 91.9404C31.2622 91.9404 30.4961 92.7044 30.4961 93.6465C30.4961 94.5891 31.2622 95.3531 32.2074 95.3531C33.1522 95.3531 33.9182 94.5891 33.9182 93.6465Z" fill="#F5F6FB"/>
<path fill-rule="evenodd" clip-rule="evenodd" d="M38.8524 93.6465C38.8524 92.7044 38.0863 91.9404 37.141 91.9404C36.1958 91.9404 35.4297 92.7044 35.4297 93.6465C35.4297 94.5891 36.1958 95.3531 37.141 95.3531C38.0863 95.3531 38.8524 94.5891 38.8524 93.6465Z" fill="#71AB84"/>
<path fill-rule="evenodd" clip-rule="evenodd" d="M43.7854 93.6465C43.7854 92.7044 43.0193 91.9404 42.0746 91.9404C41.1294 91.9404 40.3633 92.7044 40.3633 93.6465C40.3633 94.5891 41.1294 95.3531 42.0746 95.3531C43.0193 95.3531 43.7854 94.5891 43.7854 93.6465Z" fill="#509066"/>
<path d="M87.749 53.2858C86.8794 51.6938 84.7029 51.6938 83.8333 53.2858L75.5594 68.4265C74.6877 70.0153 75.7744 72.0067 77.5156 72.0067H94.0688C95.8079 72.0067 96.8956 70.0153 96.0261 68.4265L87.749 53.2858Z" fill="#EC4C64" stroke="#FFE7EA" stroke-width="2.25792"/>
<path d="M84.6406 58.707H86.9486L86.6189 65.8781H84.9703L84.6406 58.707ZM84.9703 68.4333V66.7848H86.6189V68.4333H84.9703Z" fill="white"/>
<path fill-rule="evenodd" clip-rule="evenodd" d="M75.6731 45.3005L67.347 40.5373C66.7603 40.2013 66.0065 40.627 65.9905 41.3033L65.7696 50.8931C65.7544 51.569 66.4882 51.9891 67.0908 51.6488L75.6379 46.8222C76.2405 46.4819 76.2606 45.6361 75.6731 45.3005Z" fill="#94C6A5"/>
<path fill-rule="evenodd" clip-rule="evenodd" d="M63.2349 30.5281L63.2318 25.3977C63.2311 24.7719 62.5627 24.3681 62.0279 24.6701L57.6384 27.1488C57.1036 27.4508 57.1043 28.2317 57.6398 28.5555L62.0316 31.2076C62.5662 31.5299 63.2347 31.1524 63.2349 30.5281Z" fill="#509066"/>
<path fill-rule="evenodd" clip-rule="evenodd" d="M51.6926 43.4183L44.1772 38.9442C43.3874 38.4737 42.3929 39.0354 42.3879 39.9546L42.3388 48.7005C42.3327 49.6193 43.3204 50.208 44.1159 49.7588L51.6812 45.4866C52.4759 45.0378 52.482 43.888 51.6926 43.4183Z" fill="#71AB84"/>
</svg>
