<svg width="120" height="121" viewBox="0 0 120 121" fill="none" xmlns="http://www.w3.org/2000/svg">
<path fill-rule="evenodd" clip-rule="evenodd" d="M60 120.5C93.1371 120.5 120 93.6371 120 60.5C120 27.3629 93.1371 0.5 60 0.5C26.8629 0.5 0 27.3629 0 60.5C0 93.6371 26.8629 120.5 60 120.5Z" fill="#EDFFF3"/>
<path d="M67.6382 58.0128H103.47C105.126 58.0128 106.47 59.356 106.47 61.0128V114.473C106.47 116.13 105.126 117.473 103.47 117.473H67.6382V58.0128Z" fill="#71AB84"/>
<path d="M102.829 58.0128H104.47C105.574 58.0128 106.47 58.9082 106.47 60.0128V115.473C106.47 116.578 105.574 117.473 104.47 117.473H102.829V58.0128Z" fill="#509166"/>
<path d="M13.0312 61.0128C13.0312 59.356 14.3744 58.0128 16.0312 58.0128H67.638V117.473H15.0313C13.9267 117.473 13.0312 116.578 13.0312 115.473V61.0128Z" fill="#94C6A5"/>
<rect x="28.3721" y="68.8494" width="22.624" height="5.88936" fill="white"/>
<path fill-rule="evenodd" clip-rule="evenodd" d="M28.3721 68.8494H30.4094V73.6624L28.3721 74.7387V68.8494Z" fill="#509066"/>
<path fill-rule="evenodd" clip-rule="evenodd" d="M28.3721 74.7387H50.9961V73.6624L30.4094 73.6624L28.3721 74.7387Z" fill="#71AB84"/>
<rect x="28.3721" y="98.8043" width="22.624" height="5.88936" fill="white"/>
<path fill-rule="evenodd" clip-rule="evenodd" d="M28.3721 98.8043H30.4094V103.617L28.3721 104.694V98.8043Z" fill="#509066"/>
<path fill-rule="evenodd" clip-rule="evenodd" d="M28.3721 104.694H50.9961V103.617L30.4094 103.617L28.3721 104.694Z" fill="#71AB84"/>
<path fill-rule="evenodd" clip-rule="evenodd" d="M19.8854 72.2743C20.4993 72.2743 20.9969 71.7767 20.9969 71.1628C20.9969 70.549 20.4993 70.0513 19.8854 70.0513C19.2716 70.0513 18.7739 70.549 18.7739 71.1628C18.7739 71.7767 19.2716 72.2743 19.8854 72.2743Z" fill="white"/>
<path fill-rule="evenodd" clip-rule="evenodd" d="M19.8854 102.897C20.4993 102.897 20.9969 102.4 20.9969 101.786C20.9969 101.172 20.4993 100.674 19.8854 100.674C19.2716 100.674 18.7739 101.172 18.7739 101.786C18.7739 102.4 19.2716 102.897 19.8854 102.897Z" fill="white"/>
<path fill-rule="evenodd" clip-rule="evenodd" d="M59.8888 72.2743C60.5027 72.2743 61.0003 71.7767 61.0003 71.1628C61.0003 70.549 60.5027 70.0513 59.8888 70.0513C59.275 70.0513 58.7773 70.549 58.7773 71.1628C58.7773 71.7767 59.275 72.2743 59.8888 72.2743Z" fill="white"/>
<path fill-rule="evenodd" clip-rule="evenodd" d="M59.8888 102.897C60.5027 102.897 61.0003 102.4 61.0003 101.786C61.0003 101.172 60.5027 100.674 59.8888 100.674C59.275 100.674 58.7773 101.172 58.7773 101.786C58.7773 102.4 59.275 102.897 59.8888 102.897Z" fill="white"/>
<rect x="73.3931" y="104.221" width="3.01725" height="3.01725" rx="1.50862" fill="white"/>
<rect x="95.2583" y="104.221" width="3.01725" height="3.01725" rx="1.50862" fill="white"/>
<path d="M93.9136 117.483H101.169C101.169 119.149 99.8177 120.5 98.1513 120.5H96.9308C95.2644 120.5 93.9136 119.149 93.9136 117.483Z" fill="#36764C"/>
<path d="M56.3726 117.483H63.6275C63.6275 119.149 62.2767 120.5 60.6103 120.5H59.3898C57.7234 120.5 56.3726 119.149 56.3726 117.483Z" fill="#36764C"/>
<path d="M17.3691 117.483H24.6241C24.6241 119.149 23.2732 120.5 21.6069 120.5H20.3864C18.72 120.5 17.3691 119.149 17.3691 117.483Z" fill="#36764C"/>
<path d="M13.0312 85.7028H67.638" stroke="#509066"/>
<path d="M13.0312 60.0128C13.0312 58.9082 13.9267 58.0128 15.0312 58.0128H67.638V61.6533H13.0312V60.0128Z" fill="#509166"/>
<rect x="13.0312" y="86.0887" width="54.6067" height="3.64045" fill="#509166"/>
<path d="M80.1016 33.1412C80.1016 33.1412 79.461 40.9494 71.916 40.9494C64.3711 40.9494 64.8508 33.1412 52.0246 33.1412C39.1984 33.1412 33.1421 59.3188 50.5153 69.2956" stroke="#12304C" stroke-linecap="round" stroke-linejoin="round" stroke-dasharray="3 3"/>
<rect width="2.7496" height="5.04093" rx="1.3748" transform="matrix(-0.978148 -0.207912 -0.207912 0.978148 82.8403 26.3312)" fill="#82BCF2"/>
<path fill-rule="evenodd" clip-rule="evenodd" d="M82.2123 27.1322C81.9647 27.0796 81.8067 26.8363 81.8593 26.5887C81.9119 26.3411 82.1553 26.1831 82.4028 26.2357C82.6504 26.2883 82.8084 26.5317 82.7558 26.7792C82.7032 27.0268 82.4598 27.1848 82.2123 27.1322Z" fill="#12304C"/>
<path fill-rule="evenodd" clip-rule="evenodd" d="M80.3168 26.7347C80.0692 26.6821 79.9112 26.4387 79.9638 26.1912C80.0164 25.9436 80.2598 25.7856 80.5073 25.8382C80.7549 25.8908 80.9129 26.1342 80.8603 26.3817C80.8077 26.6293 80.5643 26.7873 80.3168 26.7347Z" fill="#12304C"/>
<path fill-rule="evenodd" clip-rule="evenodd" d="M80.7584 28.9143C80.442 29.4623 78.4314 28.8937 77.8022 28.5305C77.173 28.1672 76.9194 27.4285 77.2358 26.8805C77.5521 26.3326 78.3187 26.1828 78.9478 26.5461C79.577 26.9094 81.0748 28.3664 80.7584 28.9143Z" fill="#12304C"/>
<path fill-rule="evenodd" clip-rule="evenodd" d="M81.0647 28.9794C81.1308 29.6086 83.1989 29.907 83.9215 29.8311C84.644 29.7551 85.1761 29.1835 85.11 28.5542C85.0439 27.9249 84.4045 27.4764 83.682 27.5523C82.9594 27.6282 80.9985 28.3501 81.0647 28.9794Z" fill="#12304C"/>
</svg>
